PathFileType	4	(X/Y/Z)	Patient4_TMGait_0pt2_01_right_15.trc.trc
DataRate	CameraRate	NumFrames	NumMarkers	Units	OrigDataRate	OrigDataStartFrame	OrigNumFrames
43.209876543210	43.209876543210	5	33	mm	43.209876543210	53	       141
Frame#	Time	Sacral			L.Shoulder			Chest			R.Shoulder			Neck			R.ASIS			L.ASIS			R.Thigh.Superior			R.Thigh.Lateral			R.Thigh.Inferior			R.Patella			L.Thigh.Superior			L.Thigh.Lateral			L.Thigh.Inferior			L.Patella			L.Shank.Superior			L.Shank.Lateral			L.Shank.Inferior			R.Shank.Superior			R.Shank.Lateral			R.Shank.Inferior			R.Heel			R.Midfoot.Superior			R.Midfoot.Lateral			R.Toe			L.Heel			L.Midfoot.Lateral			L.Midfoot.Superior			L.Toe			L.Elbow			L.Wrist			R.Elbow			R.Wrist			
		X1	Y1	Z1	X2	Y2	Z2	X3	Y3	Z3	X4	Y4	Z4	X5	Y5	Z5	X6	Y6	Z6	X7	Y7	Z7	X8	Y8	Z8	X9	Y9	Z9	X10	Y10	Z10	X11	Y11	Z11	X12	Y12	Z12	X13	Y13	Z13	X14	Y14	Z14	X15	Y15	Z15	X16	Y16	Z16	X17	Y17	Z17	X18	Y18	Z18	X19	Y19	Z19	X20	Y20	Z20	X21	Y21	Z21	X22	Y22	Z22	X23	Y23	Z23	X24	Y24	Z24	X25	Y25	Z25	X26	Y26	Z26	X27	Y27	Z27	X28	Y28	Z28	X29	Y29	Z29	X30	Y30	Z30	X31	Y31	Z31	X32	Y32	Z32	X33	Y33	Z33	

53	34.343428571429	675.577350805823	981.635756107610	577.021060998118	822.903275592560	1402.334080381371	358.103363473825	937.860889946717	1351.386387017933	516.861139944337	861.938828266418	1427.478479668046	693.246877620633	806.524619495800	1474.143196188549	511.991334045306	916.892042380115	927.401044172218	676.718541711289	879.547209837424	941.581895602804	405.859763029460	966.576520344862	729.673771259181	625.289189568295	900.134487986809	607.713490262180	680.828270777043	969.420242108841	566.899716506143	587.788549390180	973.690192336160	469.370920012348	587.079987714130	966.889583130411	753.954914094114	430.746467829589	918.105416658833	629.162976236844	349.204925076710	1020.018607717900	563.692586033028	410.351511981343	1028.413559519244	473.796757804130	396.124847754679	956.707758759590	411.887557889913	382.000999593049	810.485319946614	382.737263618802	334.696090782354	792.451293001724	248.535105900659	374.169472492688	926.105465793470	382.476767411644	591.825551145931	842.895528271596	289.289471239674	656.571271831074	856.029893968633	193.969795453055	585.958423085569	691.930105159918	44.529148113624	566.030642458851	866.162561001768	95.898825683476	591.953690383448	778.969243417937	37.528562681378	635.696287663087	986.590343405347	40.447382755432	614.298557161395	599.904324292937	195.813595548322	413.009805905705	649.448981717960	152.819042143433	326.385334827687	755.925639446240	148.241706574014	343.306378439102	820.878439039517	33.841091399448	300.930424512238	778.975689782974	1041.321436987214	274.372616012574	838.253144676659	788.480060425824	286.817349591580	919.040884942117	1086.758868290133	833.647909913228	1085.142489294562	887.516471422783	829.101297325363	
54	34.366571428571	674.245932438325	980.358965171356	580.539309772268	820.394704593311	1400.599697375053	359.968485040115	937.317849506381	1349.219548415352	517.193354240571	864.027300086740	1425.664565753692	694.558961300176	806.722800391111	1472.555226133276	513.819429929354	916.637592219240	925.299550994762	677.137632187194	876.137778324500	940.340087258495	406.769224723172	966.562651000825	728.086902465582	624.570345559413	901.274715156650	605.746807283349	680.189477047640	969.769736238821	565.531179367331	586.119823663201	974.306789224101	467.537179929822	585.087540276974	966.596867149951	756.052742210755	432.497040131817	920.760471351055	630.388229145334	350.876934807555	1023.569496477567	566.916643853609	412.799295937757	1034.237295869301	477.384971938076	398.300898834385	964.427068846200	413.955169281672	383.403546791798	819.429227656444	380.445383018615	336.416793208069	806.628818133143	245.670304329001	374.896847025358	925.585384259963	380.793643675947	590.390398856731	841.789994523778	288.507060615799	655.855266583166	853.124622371378	193.075285466916	585.279145190174	687.366351859706	44.627824869466	566.143337412202	861.613857317747	95.810447051512	591.810141044555	774.397907760691	37.558591227158	635.768500279145	982.012366236230	40.267793228702	614.307037072650	617.235628633576	183.990438847068	414.406605255117	667.761141129887	145.973505072747	326.372148502083	773.871099490110	146.135033959798	342.805314176880	843.517244341858	35.610032530299	296.866925222977	766.738774687142	1041.006394697639	278.891764794127	805.444967197406	783.369345781568	293.643900788022	935.628606871240	1088.359938290593	835.559920806005	1118.931435979991	905.486644681911	825.779364120250	
55	34.389714285714	673.143776790983	979.912983349738	583.762706563053	817.799400234794	1399.864372495538	361.804969320390	936.812070062367	1347.869153572883	517.280551548416	866.324299147136	1424.543434457615	695.679672231317	806.948804780562	1471.714045411726	515.688481243739	916.536890894860	923.797637740430	677.020085370630	872.810105490536	939.964845353564	407.189497280408	965.951354727660	726.744654997326	623.588052874622	901.358185238908	604.343560696464	679.505872750420	968.889366659168	564.408274987859	584.512023918246	973.414025295398	466.177224739903	583.274056998400	965.429950157218	758.227218395885	433.742327270169	921.702454150841	631.921045461293	352.160567622985	1024.969890588316	570.022810810530	414.745684014759	1037.824245208456	481.277330434412	400.090248221524	970.711380467812	416.233851622525	384.407075490390	828.029896448650	376.548839117384	337.231828960538	822.057683211081	241.407987141040	374.989933723713	923.894002627273	379.583221608847	589.132486227911	839.811333488048	287.963732940613	655.287280479268	849.747899028374	192.456518209595	584.738349726393	682.767668733110	44.719003101838	566.277552006039	857.041327843940	95.743585759352	591.717283907151	769.806513332380	37.580601169317	635.859755321762	977.406844789273	40.126408340568	614.309521495564	637.068535712157	168.371270979234	414.528021667363	689.298481409355	135.960955732686	325.505136452991	794.575005617594	142.434641287643	341.867063188036	870.483303929722	37.547608919567	293.231454915598	754.393444010263	1042.239008333617	282.833538762270	774.711539138290	781.979721868529	300.367396482157	952.192486019217	1091.365540554591	836.872837021037	1151.403039917625	926.685798092529	821.391346381806	
56	34.412857142857	672.267909234058	980.344628222602	586.675978496309	815.154037721636	1400.170492882340	363.603291093230	936.358281101198	1347.376269817472	517.118275743020	868.845823885000	1424.169220245057	696.591674742571	807.203961361955	1471.669827777033	517.571905685605	916.555925894366	922.946116049982	676.408113918848	869.577488552868	940.493649098741	407.152796181249	964.707484571636	725.694779673067	622.408672825532	900.340113875259	603.545909176331	678.841694508824	966.757328567061	563.567696323639	583.054204058341	970.996378994906	465.323915331838	581.744573196221	963.493609140884	760.496810259459	434.518077185587	921.084259634604	633.760061052701	353.008740923353	1024.381263149268	572.989548942723	416.154614770438	1039.315824692832	485.442996757767	401.469036294754	975.644486061129	418.754372247529	385.015974397581	836.487946219379	371.386540597596	337.001600187657	838.590563499402	236.235349610893	374.433315722509	921.012785242307	378.878572791369	588.126675995463	836.925747313172	287.678404123759	654.906877953821	845.888150734414	192.128943167119	584.360988774836	678.132395766818	44.807325364767	566.428335424237	852.445726286288	95.700609791815	591.679911104324	765.192689582854	37.595234519056	635.966330887768	972.772718819631	40.022215917668	614.308053167620	659.225065932700	150.204020797401	413.177373968133	713.819029377563	123.660935492437	323.755119337313	817.699240329928	137.595559956471	340.582559853938	900.977772799602	39.698474279330	290.493080798476	742.110452011931	1044.967597109264	286.297536816999	746.424373444819	783.794378874435	306.854300969488	968.611556229086	1095.746052818991	837.488125784456	1181.998201546880	950.765547607702	815.979681073027	
57	34.436000000000	671.597145723980	981.615813509048	589.249902788551	812.504071561603	1401.468516025275	365.344281530163	935.965562659851	1347.703775992790	516.712787638650	871.577444156224	1424.521523501000	697.281393049637	807.484359850983	1472.399730408899	519.423898468738	916.646486782907	922.729274496056	675.358708939347	866.460181269010	941.886579458212	406.701831747328	962.836672134819	724.951142702164	621.088212580646	898.255626674057	603.343812146711	678.239328924885	963.439787153141	563.016892329619	581.801521483674	967.144255395085	464.968027237396	580.558136853606	960.919923572724	762.848132886464	434.843120768856	919.105278111714	635.873832989583	353.374869486081	1022.044168032523	575.793698433087	416.982136778741	1038.930687514756	489.828086589270	402.414508353623	979.335793006152	421.534469647228	385.247833355666	844.949322807859	365.398150276635	335.675763883020	855.940643676185	230.721193070290	373.277825255377	917.010581708042	378.669036295332	587.410954161901	833.165139604410	287.647737209856	654.726042018754	841.568099987996	192.082218190122	584.150606287358	673.461948595479	44.894668198272	566.587853566643	847.829012741560	95.681363871809	591.695057906962	760.555723159218	37.603364877091	636.081707781067	968.111230443955	39.952411740398	614.304277033421	683.310448339165	130.880883108269	410.318138943470	740.831648975734	110.132394698119	321.194074649010	842.691793124971	132.206597756740	339.085853891121	933.942258529625	42.195230010360	289.035143725197	730.109180497265	1049.023206970692	289.387948070984	720.794476817795	788.170017717280	312.975397334050	984.755726217455	1101.385234941389	837.331900045960	1210.250840201652	977.219050718735	809.622858412395	
